<?xml version="1.0" standalone="no"?>
<!DOCTYPE svg PUBLIC "-//W3C//DTD SVG 20010904//EN"
 "http://www.w3.org/TR/2001/REC-SVG-20010904/DTD/svg10.dtd">
<svg version="1.0" xmlns="http://www.w3.org/2000/svg"
 width="700.000000pt" height="700.000000pt" viewBox="0 0 700.000000 700.000000"
 preserveAspectRatio="xMidYMid meet">
<metadata>
Created by potrace 1.11, written by Peter Selinger 2001-2013
</metadata>
<g transform="translate(0.000000,700.000000) scale(0.100000,-0.100000)"
fill="#000000" stroke="none">
<path d="M710 5458 c-105 -12 -179 -33 -265 -76 -286 -143 -451 -418 -440
-736 4 -107 5 -117 31 -205 25 -89 52 -138 547 -991 88 -151 168 -291 179
-310 11 -19 29 -51 40 -70 33 -56 244 -422 265 -460 32 -55 152 -263 162 -280
5 -8 53 -91 107 -185 129 -226 170 -289 234 -358 85 -93 184 -157 327 -211 49
-18 82 -25 177 -35 239 -26 490 71 662 257 44 47 138 196 236 372 32 56 195
340 207 360 5 8 47 80 93 159 46 80 98 170 115 200 18 31 50 86 70 123 21 38
40 68 43 68 3 0 10 -10 16 -23 9 -17 384 -668 607 -1052 79 -137 109 -178 187
-253 230 -221 589 -278 883 -138 122 58 241 158 313 266 17 25 192 324 388
665 197 341 375 649 396 685 144 244 598 1037 625 1090 37 76 53 119 70 204
15 70 13 237 -3 311 -58 270 -257 495 -517 585 -70 24 -89 28 -177 38 -143 17
-311 -14 -443 -80 -127 -64 -268 -202 -341 -333 -12 -21 -138 -240 -317 -550
-230 -398 -260 -451 -285 -495 -50 -91 -45 -90 -92 -8 -24 40 -51 87 -60 103
-10 17 -27 46 -38 65 -11 19 -76 132 -144 250 -69 118 -184 318 -256 443 -158
273 -179 305 -251 378 -273 273 -693 309 -1020 87 -99 -68 -188 -174 -271
-326 -8 -15 -18 -28 -22 -30 -5 -2 -8 -7 -8 -12 0 -5 -39 -75 -86 -157 -48
-81 -98 -168 -111 -192 -14 -24 -90 -156 -170 -294 -80 -138 -153 -264 -162
-281 -33 -58 -63 -107 -66 -104 -2 2 -59 100 -127 218 -69 118 -184 319 -258
445 -73 127 -146 255 -163 285 -17 30 -38 67 -49 82 -10 14 -18 29 -18 32 0
17 -119 187 -163 234 -170 178 -414 268 -657 240z m220 -476 c91 -40 129 -87
258 -312 11 -19 37 -64 57 -100 21 -36 48 -83 60 -105 12 -22 52 -91 89 -153
36 -62 77 -132 90 -155 42 -74 287 -499 336 -583 68 -116 68 -112 17 -196 -24
-40 -110 -189 -192 -331 -117 -204 -151 -255 -160 -245 -9 10 -162 271 -263
448 -60 106 -329 573 -357 620 -18 30 -42 71 -53 90 -30 53 -173 301 -191 332
-136 227 -169 306 -165 391 8 147 102 266 254 320 35 12 176 -1 220 -21z
m2722 -9 c145 -78 217 -240 173 -391 -14 -45 -93 -196 -165 -312 -27 -44 -136
-238 -142 -252 -11 -26 -21 -22 -44 20 -11 20 -79 138 -151 262 -137 238 -151
267 -159 343 -18 157 102 324 256 358 69 16 175 3 232 -28z m2699 4 c114 -55
191 -176 191 -299 0 -97 -14 -132 -129 -328 -28 -47 -60 -101 -71 -120 -89
-158 -102 -180 -282 -490 -78 -135 -152 -263 -165 -285 -97 -170 -379 -661
-382 -664 -4 -5 -31 31 -49 64 -31 58 -328 572 -336 582 -13 16 -2 46 43 122
22 34 39 64 39 66 0 2 21 39 46 82 47 78 57 96 121 208 19 33 38 67 44 75 5 8
91 157 190 330 100 173 190 329 199 345 10 17 42 72 71 124 92 160 187 222
334 217 63 -2 92 -8 136 -29z m-3491 -777 c0 -5 43 -82 95 -171 52 -89 95
-163 95 -164 0 -1 42 -75 94 -164 l94 -163 -50 -86 c-28 -48 -58 -100 -68
-117 -9 -16 -61 -106 -115 -200 -54 -93 -121 -209 -148 -257 -28 -49 -53 -88
-56 -88 -3 0 -93 152 -199 336 l-193 335 197 342 c109 188 206 357 217 375 18
31 37 42 37 22z m1346 -72 c26 -46 70 -121 98 -168 27 -47 59 -103 71 -125 13
-22 66 -115 119 -207 l97 -167 -94 -163 c-52 -90 -104 -179 -116 -198 -11 -19
-24 -42 -28 -50 -4 -8 -30 -53 -57 -100 -28 -47 -60 -102 -71 -123 -11 -20
-22 -37 -25 -37 -3 0 -38 55 -77 123 -255 442 -323 561 -323 568 0 3 -7 12
-15 19 -28 23 -22 42 60 182 6 9 33 57 61 105 28 48 77 133 109 188 31 55 71
125 88 155 29 54 46 80 52 80 2 0 25 -37 51 -82z m-1899 -1398 c168 -293 161
-279 169 -321 33 -160 -42 -316 -185 -386 -47 -24 -69 -28 -141 -28 -72 0 -94
4 -145 28 -111 52 -183 155 -193 273 -8 100 10 148 145 382 163 282 158 273
172 301 11 19 15 21 26 10 7 -8 75 -124 152 -259z m2585 210 c14 -25 81 -142
149 -260 69 -118 130 -232 136 -254 19 -61 11 -183 -16 -237 -54 -113 -158
-186 -278 -196 -261 -21 -444 238 -336 477 14 31 253 450 290 509 17 26 21 24
55 -39z"/>
</g>
</svg>
